<svg width="54" height="38" viewBox="0 0 54 38" fill="none" xmlns="http://www.w3.org/2000/svg">
<rect x="0.584948" y="0.584948" width="52.6453" height="36.2668" rx="4.09464" fill="white"/>
<rect x="0.584948" y="0.584948" width="52.6453" height="36.2668" rx="4.09464" stroke="#F5F5F5" stroke-width="1.1699"/>
<path d="M35.1973 15.5066C35.1008 15.5629 32.8034 16.751 32.8034 19.3853C32.9117 22.3895 35.7025 23.4431 35.7504 23.4431C35.7025 23.4994 35.3291 24.8783 34.2228 26.3237C33.3448 27.5688 32.3703 28.8242 30.8906 28.8242C29.483 28.8242 28.9777 27.9944 27.3536 27.9944C25.6094 27.9944 25.1159 28.8242 23.7805 28.8242C22.3007 28.8242 21.254 27.5016 20.3282 26.2682C19.1254 24.6538 18.103 22.1205 18.067 19.688C18.0426 18.399 18.3078 17.1319 18.981 16.0557C19.9312 14.5532 21.6275 13.5333 23.48 13.4997C24.8993 13.4551 26.1625 14.4077 27.0287 14.4077C27.8588 14.4077 29.4108 13.4997 31.1667 13.4997C31.9247 13.5004 33.9458 13.7132 35.1973 15.5066ZM26.9087 13.2423C26.656 12.0652 27.3536 10.8881 28.0032 10.1372C28.8333 9.22914 30.1444 8.61279 31.275 8.61279C31.3472 9.78992 30.8898 10.9444 30.0722 11.7852C29.3386 12.6932 28.0754 13.3768 26.9087 13.2423Z" fill="black"/>
</svg>
