<svg width="64" height="64" viewBox="0 0 64 64" fill="none" xmlns="http://www.w3.org/2000/svg">
<path d="M39.0498 26.2722C38.0147 25.2361 36.6367 24.6658 35.1719 24.6658C34.0195 24.6658 32.9209 25.0183 32 25.6736C31.0791 25.0183 29.9805 24.6658 28.8281 24.6658C27.3633 24.6658 25.9854 25.2361 24.9502 26.2722C23.9141 27.3074 23.3428 28.6853 23.3428 30.1502C23.3428 31.615 23.9141 32.9929 24.9502 34.0291L31.293 40.3718C31.4883 40.5671 31.7441 40.6648 32 40.6648C32.2559 40.6648 32.5117 40.5671 32.707 40.3718L39.0498 34.0291C40.0859 32.9929 40.6572 31.615 40.6572 30.1502C40.6572 28.6853 40.0859 27.3074 39.0498 26.2722ZM37.6358 32.615L32 38.2507L26.3643 32.615C25.7061 31.9568 25.3428 31.0808 25.3428 30.1502C25.3428 29.2195 25.7061 28.3445 26.3643 27.6863C27.0225 27.0281 27.8975 26.6658 28.8281 26.6658C29.7588 26.6658 30.6348 27.0281 31.293 27.6863C31.6836 28.0769 32.3164 28.0769 32.707 27.6863C34.0235 26.3699 36.3193 26.3699 37.6358 27.6863C38.294 28.3445 38.6572 29.2195 38.6572 30.1502C38.6572 31.0808 38.294 31.9568 37.6358 32.615Z" fill="#379751"/>
<path d="M32 18.6648C24.2803 18.6648 18 24.9451 18 32.6648C18 40.3845 24.2803 46.6648 32 46.6648C39.7197 46.6648 46 40.3845 46 32.6648C46 24.9451 39.7197 18.6648 32 18.6648ZM32 44.6648C25.3828 44.6648 20 39.282 20 32.6648C20 26.0476 25.3828 20.6648 32 20.6648C38.6172 20.6648 44 26.0476 44 32.6648C44 39.282 38.6172 44.6648 32 44.6648Z" fill="#379751"/>
<path d="M56.042 48.2214L48.2254 40.4058C49.3509 38.057 50 35.4384 50 32.6648C50 26.0126 46.3629 20.2051 40.9819 17.0895C40.9848 17.0584 41 17.0316 41 16.9998V8.99976H44C44.5527 8.99976 45 8.55249 45 7.99976C45 7.44703 44.5527 6.99976 44 6.99976H20C19.4472 6.99976 19 7.44703 19 7.99976C19 8.55249 19.4472 8.99976 20 8.99976H23V16.9998C23 17.0316 23.0152 17.0584 23.0181 17.0895C17.6371 20.2051 14 26.0125 14 32.6648C14 35.4384 14.6491 38.057 15.7745 40.4058L7.95799 48.2214C7.68651 48.4929 7.59373 48.8962 7.72166 49.2595C7.84861 49.6218 8.17283 49.8796 8.55467 49.9226L14.124 50.5408L14.7422 56.1101C14.8327 56.926 15.8644 57.2857 16.4433 56.7068L24.2596 48.8906C26.6082 50.0158 29.2267 50.6648 32 50.6648C34.7733 50.6648 37.3918 50.0158 39.7404 48.8906L47.5565 56.7066C48.119 57.2692 49.1641 56.9425 49.2578 56.1101L49.876 50.5408L55.4453 49.9226C55.8272 49.8797 56.1514 49.6218 56.2783 49.2595C56.4062 48.8963 56.3135 48.4929 56.042 48.2214ZM25 8.99976H39V16.0818C36.8471 15.1696 34.4814 14.6648 32 14.6648C29.5186 14.6648 27.1528 15.1696 25 16.0818V8.99976ZM16.5 53.821L16.0234 49.5251C15.9717 49.0603 15.6045 48.6931 15.1396 48.6414L10.8437 48.1648L16.7791 42.2294C18.219 44.5125 20.1527 46.446 22.4358 47.886L16.5 53.821ZM16 32.6648C16 23.8425 23.1777 16.6648 32 16.6648C40.8223 16.6648 48 23.8425 48 32.6648C48 41.4871 40.8223 48.6648 32 48.6648C23.1777 48.6648 16 41.4871 16 32.6648ZM48.8603 48.6414C48.3955 48.6931 48.0283 49.0603 47.9765 49.5251L47.5 53.821L41.5641 47.886C43.8473 46.446 45.7809 44.5125 47.2209 42.2294L53.1562 48.1648L48.8603 48.6414Z" fill="#379751"/>
</svg>
