<svg width="1322" height="242" viewBox="0 0 1322 242" fill="none" xmlns="http://www.w3.org/2000/svg">
<g opacity="0.2">
<path d="M13.3667 192.728V26.7576H72.626C85.4729 26.7576 96.1292 28.9854 104.595 33.441C113.06 37.8223 119.41 43.9487 123.642 51.8202C127.875 59.6175 129.992 68.6401 129.992 78.8879C129.992 88.9872 127.875 97.8984 123.642 105.621C119.41 113.344 113.023 119.322 104.483 123.555C96.0178 127.788 85.3244 129.904 72.4032 129.904H27.736V108.518H70.064C78.3069 108.518 84.9531 107.329 90.0028 104.953C95.1267 102.577 98.8397 99.1979 101.142 94.8166C103.518 90.4353 104.706 85.1257 104.706 78.8879C104.706 72.5758 103.518 67.1549 101.142 62.625C98.7654 58.0209 95.0153 54.4936 89.8914 52.043C84.8417 49.5182 78.1955 48.2558 69.9526 48.2558H38.4294V192.728H13.3667ZM107.825 192.728L67.6135 117.763H95.3495L136.341 192.728H107.825ZM196.718 195.29C184.54 195.29 173.995 192.654 165.084 187.381C156.173 182.109 149.304 174.683 144.477 165.103C139.724 155.45 137.348 144.199 137.348 131.352C137.348 118.58 139.687 107.329 144.365 97.6013C149.118 87.8733 155.764 80.2988 164.304 74.8779C172.918 69.3827 183.018 66.635 194.602 66.635C201.657 66.635 208.489 67.7861 215.098 70.0881C221.707 72.3902 227.648 76.0289 232.92 81.0043C238.192 85.9797 242.351 92.4403 245.396 100.386C248.515 108.332 250.074 117.911 250.074 129.125V137.813H151.049V119.656H237.598L226.348 125.672C226.348 118.023 225.16 111.265 222.784 105.399C220.407 99.5321 216.843 94.9651 212.09 91.6977C207.412 88.356 201.582 86.6852 194.602 86.6852C187.622 86.6852 181.644 88.356 176.668 91.6977C171.767 95.0394 168.017 99.4578 165.418 104.953C162.819 110.448 161.519 116.463 161.519 122.998V135.362C161.519 143.902 163.005 151.143 165.975 157.083C168.945 163.024 173.067 167.554 178.339 170.673C183.686 173.792 189.887 175.351 196.941 175.351C201.545 175.351 205.704 174.683 209.417 173.346C213.204 172.01 216.472 170.005 219.219 167.331C221.967 164.658 224.046 161.353 225.457 157.418L248.403 161.762C246.547 168.445 243.279 174.312 238.601 179.361C233.923 184.411 228.019 188.347 220.89 191.169C213.835 193.916 205.778 195.29 196.718 195.29ZM314.35 241.962C299.498 241.962 287.802 239.177 279.263 233.608C270.723 228.039 264.819 221.429 261.552 213.781L282.27 205.204C283.755 207.58 285.723 210.105 288.174 212.778C290.699 215.451 294.077 217.716 298.31 219.573C302.543 221.429 308.001 222.358 314.684 222.358C323.818 222.358 331.393 220.13 337.408 215.674C343.423 211.293 346.43 204.238 346.43 194.51V170.116H344.76C343.423 172.715 341.381 175.648 338.633 178.916C335.886 182.109 332.135 184.894 327.383 187.27C322.63 189.646 316.43 190.834 308.781 190.834C298.978 190.834 290.142 188.532 282.27 183.928C274.473 179.25 268.235 172.418 263.557 163.433C258.953 154.373 256.65 143.234 256.65 130.016C256.65 116.797 258.915 105.473 263.445 96.0419C268.049 86.5366 274.287 79.2592 282.159 74.2095C290.03 69.1599 298.978 66.635 309.004 66.635C316.727 66.635 322.964 67.9346 327.717 70.5337C332.544 73.0585 336.294 76.0289 338.967 79.4448C341.641 82.8608 343.72 85.8683 345.205 88.4674H346.987V68.1945H370.491V195.513C370.491 206.206 368.003 214.969 363.027 221.801C358.126 228.633 351.443 233.682 342.977 236.95C334.512 240.291 324.969 241.962 314.35 241.962ZM314.127 170.673C324.598 170.673 332.618 167.071 338.188 159.868C343.831 152.591 346.653 142.528 346.653 129.682C346.653 121.29 345.428 113.938 342.977 107.626C340.527 101.24 336.888 96.2647 332.061 92.7002C327.234 89.0615 321.256 87.2421 314.127 87.2421C306.85 87.2421 300.761 89.1357 295.86 92.923C291.033 96.636 287.394 101.723 284.943 108.183C282.493 114.57 281.268 121.736 281.268 129.682C281.268 137.776 282.493 144.942 284.943 151.18C287.394 157.343 291.07 162.133 295.971 165.549C300.946 168.965 306.999 170.673 314.127 170.673ZM389.097 192.728V68.1945H413.157V192.728H389.097ZM401.239 49.0355C397.006 49.0355 393.404 47.6246 390.434 44.8027C387.463 41.9808 385.978 38.602 385.978 34.6662C385.978 30.6562 387.463 27.2403 390.434 24.4184C393.404 21.5965 397.006 20.1856 401.239 20.1856C405.397 20.1856 408.962 21.5965 411.932 24.4184C414.977 27.2403 416.499 30.6562 416.499 34.6662C416.499 38.602 414.977 41.9808 411.932 44.8027C408.962 47.6246 405.397 49.0355 401.239 49.0355ZM524.885 98.7152L502.942 102.502C501.531 98.3439 498.895 94.5196 495.033 91.0294C491.246 87.5392 485.565 85.794 477.99 85.794C471.159 85.794 465.441 87.3535 460.836 90.4724C456.307 93.5171 454.042 97.4157 454.042 102.168C454.042 106.327 455.564 109.706 458.609 112.305C461.728 114.904 466.666 116.983 473.423 118.543L493.362 122.998C504.724 125.597 513.227 129.682 518.87 135.251C524.514 140.82 527.336 147.949 527.336 156.638C527.336 164.138 525.182 170.821 520.875 176.688C516.568 182.48 510.59 187.047 502.942 190.389C495.293 193.656 486.456 195.29 476.431 195.29C462.47 195.29 451.108 192.282 442.346 186.267C433.583 180.252 428.199 171.787 426.194 160.871L449.475 157.306C450.96 163.395 453.967 168 458.497 171.118C463.101 174.237 469.042 175.797 476.32 175.797C484.191 175.797 490.503 174.126 495.256 170.784C500.083 167.443 502.496 163.395 502.496 158.643C502.496 150.771 496.63 145.462 484.897 142.714L463.844 138.036C452.185 135.362 443.571 131.167 438.002 125.449C432.506 119.656 429.759 112.379 429.759 103.616C429.759 96.2647 431.801 89.8041 435.885 84.2346C440.044 78.6651 445.725 74.3581 452.928 71.3134C460.205 68.1945 468.485 66.635 477.768 66.635C491.283 66.635 501.865 69.5683 509.514 75.4348C517.237 81.3013 522.361 89.0615 524.885 98.7152ZM597.627 68.1945V87.6877H529.68V68.1945H597.627ZM547.836 38.5649H572.008V156.192C572.008 161.91 573.196 166.106 575.572 168.779C577.948 171.378 581.773 172.678 587.045 172.678C588.308 172.678 589.644 172.604 591.055 172.455C592.54 172.307 594.026 172.084 595.511 171.787L600.078 191.837C597.627 192.654 594.954 193.285 592.058 193.731C589.162 194.176 586.266 194.399 583.369 194.399C572.602 194.399 563.988 191.391 557.527 185.376C551.066 179.287 547.836 171.193 547.836 161.093V38.5649ZM662.683 195.29C650.505 195.29 639.96 192.654 631.049 187.381C622.137 182.109 615.268 174.683 610.442 165.103C605.689 155.45 603.313 144.199 603.313 131.352C603.313 118.58 605.652 107.329 610.33 97.6013C615.083 87.8733 621.729 80.2988 630.269 74.8779C638.883 69.3827 648.982 66.635 660.567 66.635C667.621 66.635 674.453 67.7861 681.062 70.0881C687.672 72.3902 693.612 76.0289 698.885 81.0043C704.157 85.9797 708.316 92.4403 711.36 100.386C714.479 108.332 716.039 117.911 716.039 129.125V137.813H617.013V119.656H703.563L692.313 125.672C692.313 118.023 691.125 111.265 688.748 105.399C686.372 99.5321 682.808 94.9651 678.055 91.6977C673.377 88.356 667.547 86.6852 660.567 86.6852C653.586 86.6852 647.608 88.356 642.633 91.6977C637.732 95.0394 633.982 99.4578 631.383 104.953C628.784 110.448 627.484 116.463 627.484 122.998V135.362C627.484 143.902 628.969 151.143 631.94 157.083C634.91 163.024 639.032 167.554 644.304 170.673C649.651 173.792 655.851 175.351 662.906 175.351C667.51 175.351 671.669 174.683 675.382 173.346C679.169 172.01 682.436 170.005 685.184 167.331C687.932 164.658 690.011 161.353 691.422 157.418L714.368 161.762C712.511 168.445 709.244 174.312 704.566 179.361C699.887 184.411 693.984 188.347 686.855 191.169C679.8 193.916 671.743 195.29 662.683 195.29ZM728.408 192.728V68.1945H751.688V88.1332H753.025C755.327 81.4499 759.337 76.1774 765.055 72.3159C770.847 68.3801 777.382 66.4123 784.659 66.4123C786.144 66.4123 787.89 66.4865 789.895 66.635C791.974 66.7093 793.645 66.8207 794.907 66.9692V90.1382C793.942 89.8412 792.197 89.5442 789.672 89.2471C787.221 88.9501 784.734 88.8016 782.209 88.8016C776.491 88.8016 771.367 90.0269 766.837 92.4774C762.381 94.8537 758.854 98.1583 756.255 102.391C753.73 106.55 752.468 111.377 752.468 116.872V192.728H728.408Z" fill="black"/>
<path d="M856.083 38.7832C856.083 26.3938 866.126 16.3502 878.516 16.3502H1299.57C1311.96 16.3502 1322 26.3938 1322 38.7832V175.625C1322 188.014 1311.96 198.058 1299.57 198.058H878.516C866.126 198.058 856.083 188.014 856.083 175.625V38.7832Z" fill="black"/>
<path d="M997.032 87.3054H972.799V102.4H993.197V113.905H972.717V132.917H959.744V75.8006H997.032V87.3054ZM1047.22 75.8006V111.702C1047.22 125.41 1038.33 133.977 1024.3 133.977C1010.1 133.977 1001.2 125.41 1001.2 111.702V75.8006H1014.26V111.784C1014.26 118.474 1018.18 122.717 1024.3 122.717C1030.42 122.717 1034.17 118.474 1034.17 111.784V75.8006H1047.22ZM1094.99 75.8006H1107.31V132.917H1090.83L1075.82 107.378L1068.56 93.9961V132.917H1056.48V75.8006H1072.8L1089.04 104.114L1094.99 115.211V75.8006ZM1137.79 75.8006C1155.74 75.8006 1167 86.8158 1167 104.195C1167 121.901 1155.74 132.917 1137.79 132.917H1117.8V75.8006H1137.79ZM1137.38 121.82C1147.17 121.82 1153.29 115.047 1153.29 104.195C1153.29 93.5882 1147.17 86.8974 1137.38 86.8974H1130.85V121.82H1137.38ZM1196.75 133.977C1182.31 133.977 1173.58 126.552 1171.62 116.924L1184.67 114.721C1186.3 120.514 1190.47 123.452 1196.5 123.452C1201.64 123.452 1204.66 121.412 1204.66 117.74C1204.66 106.398 1173.74 111.539 1173.74 91.5483C1173.74 80.0435 1183.12 74.4951 1194.87 74.4951C1207.52 74.4951 1214.86 81.4306 1216.66 90.6508L1203.77 92.7722C1202.38 88.2029 1199.28 84.9392 1194.38 84.9392C1189.65 84.9392 1186.88 87.5502 1186.88 90.7324C1186.88 100.932 1217.8 96.3624 1217.8 116.435C1217.8 127.205 1209.64 133.977 1196.75 133.977Z" fill="white"/>
</g>
</svg>
