<svg width="54" height="38" viewBox="0 0 54 38" fill="none" xmlns="http://www.w3.org/2000/svg">
<rect x="0.584948" y="1.02147" width="52.6453" height="36.2668" rx="4.09464" fill="white"/>
<rect x="0.584948" y="1.02147" width="52.6453" height="36.2668" rx="4.09464" stroke="#F5F5F5" stroke-width="1.1699"/>
<path fill-rule="evenodd" clip-rule="evenodd" d="M28.4951 13.1366L25.801 13.7318V11.4833L28.4951 10.8992V13.1366ZM46.2162 19.4301C46.2162 16.6085 44.8853 14.382 42.3415 14.382C39.787 14.382 38.2414 16.6085 38.2414 19.4081C38.2414 22.7257 40.066 24.401 42.685 24.401C43.9622 24.401 44.9282 24.1034 45.6581 23.6846V21.4802C44.9282 21.8549 44.091 22.0864 43.0284 22.0864C41.9873 22.0864 41.0642 21.7117 40.9462 20.4111H46.1948C46.1948 20.3504 46.1986 20.2128 46.2031 20.0541L46.2031 20.0533V20.0533V20.0532L46.2031 20.053C46.2091 19.837 46.2162 19.5824 46.2162 19.4301ZM40.9133 18.3831C40.9133 17.1376 41.6539 16.6196 42.3301 16.6196C42.9848 16.6196 43.6825 17.1376 43.6825 18.3831H40.9133ZM34.0978 14.3821C33.0459 14.3821 32.3697 14.8891 31.994 15.2418L31.8545 14.5584H29.4932V27.4101L32.1765 26.826L32.1872 23.7067C32.5736 23.9933 33.1425 24.4011 34.087 24.4011C36.0083 24.4011 37.7579 22.8139 37.7579 19.32C37.7471 16.1236 35.9761 14.3821 34.0978 14.3821ZM33.4541 21.9763C32.8209 21.9763 32.4452 21.7449 32.1876 21.4583L32.1769 17.3691C32.4559 17.0495 32.8423 16.8291 33.4541 16.8291C34.4309 16.8291 35.1071 17.9533 35.1071 19.3972C35.1071 20.8741 34.4416 21.9763 33.4541 21.9763ZM25.801 14.5697H28.4951V24.2139H25.801V14.5697ZM22.7432 14.5697L22.9149 15.3854C23.5482 14.195 24.804 14.4375 25.1475 14.5697V17.1048C24.8147 16.9836 23.7414 16.8293 23.1081 17.678V24.214H20.4248V14.5697H22.7432ZM17.5477 12.1775L14.9287 12.7506L14.918 21.5793C14.918 23.2105 16.1094 24.4119 17.6979 24.4119C18.5781 24.4119 19.2221 24.2466 19.5763 24.0482V21.8107C19.2328 21.954 17.5369 22.461 17.5369 20.8298V16.917H19.5763V14.5693H17.5369L17.5477 12.1775ZM11.2041 16.7738C10.6352 16.7738 10.2917 16.9391 10.2917 17.369C10.2917 17.8383 10.8828 18.0448 11.6162 18.3009C12.8117 18.7185 14.3852 19.2681 14.3919 21.3038C14.3919 23.2768 12.857 24.4121 10.6245 24.4121C9.70138 24.4121 8.69244 24.2247 7.69424 23.7838V21.1606C8.59584 21.6676 9.73358 22.0423 10.6245 22.0423C11.2255 22.0423 11.6549 21.877 11.6549 21.37C11.6549 20.8501 11.0141 20.6125 10.2405 20.3256C9.06235 19.8887 7.57617 19.3376 7.57617 17.5012C7.57617 15.5503 9.02518 14.382 11.2041 14.382C12.0949 14.382 12.9751 14.5253 13.8659 14.889V17.4792C13.0502 17.0273 12.0198 16.7738 11.2041 16.7738Z" fill="#6461FC"/>
</svg>
