<svg width="46" height="47" viewBox="0 0 46 47" fill="none" xmlns="http://www.w3.org/2000/svg">
<rect x="3" y="3.61987" width="40" height="40" rx="20" fill="#F5F5F5"/>
<rect x="3" y="3.61987" width="40" height="40" rx="20" stroke="#FAFAFA" stroke-width="6"/>
<g clip-path="url(#clip0_2488_3459)">
<path d="M26.3335 26.9531L23.0002 23.6198M23.0002 23.6198L19.6669 26.9531M23.0002 23.6198V31.1198M29.9919 28.9448C30.8047 28.5017 31.4467 27.8005 31.8168 26.952C32.1868 26.1034 32.2637 25.1558 32.0354 24.2587C31.807 23.3616 31.2865 22.566 30.5558 21.9977C29.8251 21.4293 28.9259 21.1204 28.0002 21.1198H26.9502C26.698 20.1441 26.2278 19.2384 25.5752 18.4706C24.9225 17.7028 24.1042 17.093 23.182 16.687C22.2597 16.2809 21.2573 16.0892 20.2503 16.1263C19.2433 16.1634 18.2578 16.4284 17.3679 16.9012C16.4779 17.374 15.7068 18.0424 15.1124 18.8561C14.518 19.6698 14.1158 20.6077 13.936 21.5993C13.7563 22.5908 13.8036 23.6102 14.0746 24.5808C14.3455 25.5514 14.8329 26.448 15.5002 27.2031" stroke="#535862" stroke-width="1.66667" stroke-linecap="round" stroke-linejoin="round"/>
</g>
<defs>
<clipPath id="clip0_2488_3459">
<rect width="20" height="20" fill="white" transform="translate(13 13.6199)"/>
</clipPath>
</defs>
</svg>
