<svg width="22" height="22" viewBox="0 0 22 22" fill="none" xmlns="http://www.w3.org/2000/svg">
<g clip-path="url(#clip0_3083_1226)">
<rect x="0.00146484" y="0.335693" width="21.65" height="21.65" rx="10.825" fill="#25D366"/>
<path d="M5.20182 16.9547L5.79391 14.2057C5.03291 13.0054 4.73604 11.5687 4.959 10.165C5.18196 8.76142 5.90943 7.48739 7.00492 6.58199C8.10041 5.67659 9.48863 5.20203 10.9091 5.24736C12.3296 5.29268 13.6847 5.85478 14.7203 6.82818C15.7558 7.80159 16.4006 9.1194 16.5336 10.5344C16.6666 11.9494 16.2788 13.3642 15.4428 14.5136C14.6068 15.6629 13.3802 16.4677 11.993 16.777C10.6059 17.0863 9.15353 16.8788 7.90849 16.1934L5.20182 16.9547Z" fill="#25D366" stroke="white" stroke-width="1.09958"/>
<path d="M13.026 11.8796C12.8991 11.7951 12.7722 11.7528 12.6454 11.9219L12.1379 12.5986C12.011 12.6832 11.9264 12.7255 11.7572 12.6409C11.1229 12.3026 10.2347 11.9219 9.47348 10.6532C9.43119 10.484 9.51578 10.3994 9.60036 10.3148L9.98098 9.72276C10.0656 9.63818 10.0233 9.5536 9.98098 9.46901L9.47348 8.24256C9.34661 7.90422 9.21973 7.94652 9.09286 7.94652H8.75453C8.66994 7.94652 8.50078 7.98881 8.33161 8.15797C7.40119 9.08839 7.78182 10.3994 8.45848 11.2453C8.58536 11.4144 9.43119 12.9369 11.2497 13.7405C12.6031 14.3326 12.8991 14.248 13.2797 14.1634C13.7449 14.1211 14.2101 13.7405 14.4216 13.3598C14.4639 13.233 14.6754 12.6832 14.5062 12.5986" fill="white"/>
</g>
<defs>
<clipPath id="clip0_3083_1226">
<rect width="21.6533" height="21.6533" fill="white" transform="translate(0 0.333984)"/>
</clipPath>
</defs>
</svg>
