<svg width="28" height="31" viewBox="0 0 28 31" fill="none" xmlns="http://www.w3.org/2000/svg">
<path d="M9.6613 16.1115C10.4764 11.8324 11.5971 10.7117 15.8761 9.89665C16.3855 9.79477 16.6912 9.38724 16.6912 8.87782C16.6912 8.36841 16.3855 7.96088 15.8761 7.859C11.5971 7.04394 10.4764 5.92323 9.6613 1.64416C9.55941 1.13475 9.15189 0.829102 8.64247 0.829102C8.13306 0.829102 7.72553 1.13475 7.62365 1.64416C6.80859 5.92323 5.68788 7.04394 1.40881 7.859C1.00128 7.96088 0.59375 8.36841 0.59375 8.87782C0.59375 9.38724 0.899398 9.79477 1.40881 9.89665C5.68788 10.7117 6.80859 11.8324 7.62365 16.1115C7.72553 16.6209 8.13306 16.9265 8.64247 16.9265C9.15189 16.9265 9.55941 16.519 9.6613 16.1115Z" fill="white"/>
<path d="M19.8496 23.2432C16.9969 22.6319 16.3856 22.0206 15.7743 19.1679C15.6724 18.6585 15.2649 18.3528 14.7554 18.3528C14.246 18.3528 13.8385 18.6585 13.7366 19.1679C13.1253 22.0206 12.514 22.6319 9.66132 23.2432C9.1519 23.3451 8.84625 23.7526 8.84625 24.262C8.84625 24.7714 9.1519 25.1789 9.66132 25.2808C12.514 25.8921 13.1253 26.5034 13.7366 29.3561C13.8385 29.8655 14.246 30.1712 14.7554 30.1712C15.2649 30.1712 15.6724 29.8655 15.7743 29.3561C16.3856 26.5034 16.9969 25.8921 19.8496 25.2808C20.359 25.1789 20.6646 24.7714 20.6646 24.262C20.6646 23.7526 20.2571 23.3451 19.8496 23.2432Z" fill="white"/>
<path d="M27.1851 13.0549C24.9437 12.6474 24.4343 12.138 24.0268 9.89659C23.9249 9.38718 23.5173 9.08153 23.0079 9.08153C22.4985 9.08153 22.091 9.38718 21.9891 9.89659C21.5816 12.138 21.0722 12.6474 18.8307 13.0549C18.3213 13.1568 18.0157 13.5644 18.0157 14.0738C18.0157 14.5832 18.3213 14.9907 18.8307 15.0926C21.0722 15.5001 21.5816 16.0095 21.9891 18.251C22.091 18.7604 22.4985 19.066 23.0079 19.066C23.5173 19.066 23.9249 18.7604 24.0268 18.251C24.4343 16.0095 24.9437 15.5001 27.1851 15.0926C27.6945 14.9907 28.0002 14.5832 28.0002 14.0738C28.0002 13.5644 27.6945 13.1568 27.1851 13.0549Z" fill="white"/>
</svg>
