<?xml version="1.0" encoding="UTF-8"?>
<svg version="1.1" xmlns="http://www.w3.org/2000/svg" width="626" height="626">
<path d="M0 0 C206.58 0 413.16 0 626 0 C626 206.58 626 413.16 626 626 C419.42 626 212.84 626 0 626 C0 419.42 0 212.84 0 0 Z " fill="#FDFDFD" transform="translate(0,0)"/>
<path d="M0 0 C0.78965652 -0.00974854 1.57931305 -0.01949707 2.39289856 -0.02954102 C26.05673113 -0.26145553 47.86187298 1.67249298 70.58837891 8.64892578 C72.41944715 9.20436669 74.26225026 9.72069116 76.10546875 10.234375 C83.76533773 12.41902402 90.52042021 15.48810958 97.53125 19.23828125 C98.91195532 19.95337954 100.29351896 20.66682219 101.67578125 21.37890625 C118.04218328 29.8535837 132.76264389 39.70879968 146.32421875 52.21875 C148.24607152 53.97733032 150.20772489 55.646479 152.21875 57.30078125 C156.744218 61.14904145 161.62781491 65.52797597 163.53125 71.23828125 C164.19125 71.23828125 164.85125 71.23828125 165.53125 71.23828125 C167.42465084 73.44622099 169.17591709 75.65605768 170.90625 77.98828125 C171.43573242 78.70056885 171.96521484 79.41285645 172.51074219 80.14672852 C203.64878966 122.84889137 218.18142928 176.72096914 210.35253906 229.31665039 C209.53892757 233.98866993 208.58317451 238.61454876 207.53125 243.23828125 C207.33337891 244.14513672 207.13550781 245.05199219 206.93164062 245.98632812 C204.68193102 256.18646778 201.93156958 265.73863299 197.53125 275.23828125 C196.8615859 276.78516415 196.19520876 278.33347216 195.53125 279.8828125 C188.63324516 295.83148859 180.44952792 309.74088256 169.53125 323.23828125 C168.74363281 324.21925781 167.95601563 325.20023437 167.14453125 326.2109375 C162.72882983 331.66121752 158.23182345 337.03112971 153.53125 342.23828125 C153.06847656 342.76679688 152.60570312 343.2953125 152.12890625 343.83984375 C150.84375 345.23828125 150.84375 345.23828125 148.53125 347.23828125 C147.21125 347.23828125 145.89125 347.23828125 144.53125 347.23828125 C144.11875 346.243125 143.70625 345.24796875 143.28125 344.22265625 C141.55703948 340.20354582 139.58762309 336.34591347 137.53125 332.48828125 C137.18835938 331.82957031 136.84546875 331.17085938 136.4921875 330.4921875 C134.79021207 327.28961541 133.15681687 324.72115427 130.53125 322.23828125 C129.52717404 320.57406695 128.5276386 318.90710944 127.53125 317.23828125 C126.10525621 315.3796826 124.6449333 313.54705687 123.15625 311.73828125 C122.40601563 310.82046875 121.65578125 309.90265625 120.8828125 308.95703125 C118.53558799 306.16549374 118.53558799 306.16549374 115.7421875 303.51953125 C113.53125 301.23828125 113.53125 301.23828125 113.53125 299.23828125 C112.54125 298.90828125 111.55125 298.57828125 110.53125 298.23828125 C108.34375 296.30078125 108.34375 296.30078125 106.53125 294.23828125 C106.53125 293.57828125 106.53125 292.91828125 106.53125 292.23828125 C105.97566406 291.98949219 105.42007812 291.74070312 104.84765625 291.484375 C102.12050018 290.0173214 99.87461277 288.24942123 97.46875 286.30078125 C96.18291016 285.26630859 96.18291016 285.26630859 94.87109375 284.2109375 C92.53125 282.23828125 92.53125 282.23828125 90.953125 280.58984375 C89.34104792 279.05748477 87.90340452 278.36687078 85.84375 277.55078125 C84.750625 277.11765625 83.6575 276.68453125 82.53125 276.23828125 C82.53125 275.57828125 82.53125 274.91828125 82.53125 274.23828125 C81.04625 273.89796875 81.04625 273.89796875 79.53125 273.55078125 C76.53115734 272.70738171 74.24536597 271.52685856 71.65625 269.80078125 C66.71465501 266.57342173 61.60274881 263.94011714 55.59375 264.5234375 C52.53748994 265.23682473 49.99990292 266.23487883 47.15625 267.55078125 C31.93675407 273.92001069 9.88256064 279.08573153 -6.20825195 273.24365234 C-6.95421631 272.91187988 -7.70018066 272.58010742 -8.46875 272.23828125 C-9.96267506 271.95422508 -11.46354996 271.70478263 -12.96875 271.48828125 C-18.58124353 270.47468167 -23.2000228 268.06919625 -28.1953125 265.3828125 C-33.19993001 263.632988 -37.04218437 264.21749042 -41.8046875 266.22094727 C-44.29782417 267.45120583 -46.72777401 268.76008153 -49.15625 270.11328125 C-49.98447266 270.56058594 -50.81269531 271.00789063 -51.66601562 271.46875 C-55.65647578 273.63490852 -59.60184896 275.85704775 -63.46875 278.23828125 C-64.15195313 278.65207031 -64.83515625 279.06585938 -65.5390625 279.4921875 C-71.1622775 283.07351264 -75.96988557 287.24935293 -80.8359375 291.796875 C-83.05802146 293.85741279 -85.32505258 295.80475868 -87.65625 297.73828125 C-91.62106009 301.14720044 -94.68060399 305.12105819 -97.8046875 309.296875 C-98.35382813 309.93753906 -98.90296875 310.57820313 -99.46875 311.23828125 C-100.12875 311.23828125 -100.78875 311.23828125 -101.46875 311.23828125 C-101.72527344 311.96402344 -101.98179687 312.68976563 -102.24609375 313.4375 C-103.53259876 316.38454183 -105.05741649 318.5186918 -107.03125 321.05078125 C-113.08665434 329.17631468 -118.04227633 338.12906437 -122.46875 347.23828125 C-129.98133841 343.73568012 -135.28980905 337.54570738 -140.46875 331.23828125 C-140.87641602 330.74295898 -141.28408203 330.24763672 -141.70410156 329.73730469 C-151.2782283 318.03403785 -159.60541857 305.73832468 -166.46875 292.23828125 C-166.83613281 291.53413086 -167.20351562 290.82998047 -167.58203125 290.10449219 C-174.76031003 276.25497178 -179.64021255 262.34540642 -183.46875 247.23828125 C-183.65018555 246.53590332 -183.83162109 245.83352539 -184.01855469 245.10986328 C-185.01607686 241.17633513 -185.80476349 237.24090418 -186.46875 233.23828125 C-186.67242187 232.01109375 -186.87609375 230.78390625 -187.0859375 229.51953125 C-189.97853393 209.6284373 -190.27485267 186.9626154 -186.46875 167.23828125 C-186.31277344 166.39604004 -186.15679687 165.55379883 -185.99609375 164.68603516 C-182.61007335 146.68682857 -177.66947599 129.49899251 -169.046875 113.28125 C-167.4047153 110.21938037 -167.4047153 110.21938037 -166.05078125 106.828125 C-164.29787759 102.85054855 -162.22370271 99.28062305 -159.90625 95.61328125 C-159.46861328 94.91887939 -159.03097656 94.22447754 -158.58007812 93.5090332 C-152.11511689 83.40348488 -144.70105228 74.22652767 -136.5 65.48046875 C-134.34500039 63.21248633 -134.34500039 63.21248633 -132.46875 60.23828125 C-131.80875 60.23828125 -131.14875 60.23828125 -130.46875 60.23828125 C-130.46875 59.57828125 -130.46875 58.91828125 -130.46875 58.23828125 C-129.03515625 56.79296875 -129.03515625 56.79296875 -127.03125 55.11328125 C-123.75074752 52.33938918 -123.75074752 52.33938918 -120.56640625 49.45703125 C-89.20785014 20.14764811 -43.08032957 0.4435039 0 0 Z " fill="#BCBCBC" transform="translate(301.46875,112.76171875)"/>
<path d="M0 0 C0.78785889 -0.00942627 1.57571777 -0.01885254 2.38745117 -0.02856445 C15.02467808 0.04134193 27.32993925 4.3026596 38.375 10.25 C38.375 10.91 38.375 11.57 38.375 12.25 C38.91769531 12.32734375 39.46039063 12.4046875 40.01953125 12.484375 C52.15332088 16.42835969 60.66927428 30.84020543 66.1875 41.375 C71.45211359 52.56002679 73.55464928 62.31507403 73.5625 74.625 C73.57474609 75.62789063 73.58699219 76.63078125 73.59960938 77.6640625 C73.61123445 83.58509945 73.09425177 88.58305863 71.375 94.25 C71.04242188 95.37921875 70.70984375 96.5084375 70.3671875 97.671875 C64.25698723 115.87428978 51.9796334 131.28918746 34.796875 140.125 C23.12676309 145.86783418 12.65662694 148.81010057 -0.4375 148.6875 C-1.5831543 148.67920166 -2.72880859 148.67090332 -3.90917969 148.66235352 C-22.90152824 148.28342353 -40.11689365 140.82701717 -53.58203125 127.28125 C-57.81007303 122.63869432 -61.30953402 117.57194396 -64.625 112.25 C-65.24955078 111.25033203 -65.24955078 111.25033203 -65.88671875 110.23046875 C-67.60597958 107.36503403 -68.625 105.64939712 -68.625 102.25 C-69.285 102.25 -69.945 102.25 -70.625 102.25 C-73.56245974 93.09666564 -75.01312021 84.51343254 -75 74.875 C-75.00193359 73.52220947 -75.00193359 73.52220947 -75.00390625 72.14208984 C-74.7409896 55.83229441 -69.40776789 41.26127578 -59.625 28.25 C-59.13128906 27.58355469 -58.63757813 26.91710937 -58.12890625 26.23046875 C-54.02174908 21.07616102 -48.87647236 17.17858237 -43.625 13.25 C-42.91472656 12.70085937 -42.20445312 12.15171875 -41.47265625 11.5859375 C-29.3345742 2.77057065 -14.66371971 0.13179916 0 0 Z " fill="#F3F3F3" transform="translate(313.625,219.75)"/>
<path d="M0 0 C0.66 0 1.32 0 2 0 C1.71125 0.556875 1.4225 1.11375 1.125 1.6875 C-0.0413253 4.08494645 -1.0339881 6.51596939 -2 9 C-2.99 8.34 -3.98 7.68 -5 7 C-4.21654285 5.82780457 -3.42297164 4.66236332 -2.625 3.5 C-2.18414062 2.8503125 -1.74328125 2.200625 -1.2890625 1.53125 C-0.65097656 0.77328125 -0.65097656 0.77328125 0 0 Z " fill="#EBEBEB" transform="translate(200,424)"/>
</svg>
