<svg width="53" height="53" viewBox="0 0 53 53" fill="none" xmlns="http://www.w3.org/2000/svg">
<path d="M0 2.98729C0 1.33746 1.33746 0 2.98729 0H50.0127C51.6625 0 53 1.33746 53 2.98729V50.0127C53 51.6625 51.6625 53 50.0127 53H2.98729C1.33746 53 0 51.6625 0 50.0127V2.98729Z" fill="#379751"/>
<path d="M15.4771 41.3768V11.623H26.1005C28.4036 11.623 30.314 12.0224 31.8316 12.8212C33.3493 13.6066 34.4875 14.7049 35.2463 16.1161C36.0051 17.5139 36.3846 19.1314 36.3846 20.9685C36.3846 22.779 36.0051 24.3766 35.2463 25.7611C34.4875 27.1456 33.3426 28.2173 31.8117 28.9761C30.294 29.7349 28.377 30.1143 26.0606 30.1143H18.053V26.2803H25.6413C27.119 26.2803 28.3104 26.0673 29.2157 25.6413C30.1343 25.2153 30.7999 24.6095 31.2126 23.8241C31.6386 23.0386 31.8516 22.0868 31.8516 20.9685C31.8516 19.8369 31.6386 18.8651 31.2126 18.0531C30.7866 17.2277 30.1143 16.5953 29.1957 16.156C28.2905 15.7034 27.099 15.4771 25.6213 15.4771H19.9701V41.3768H15.4771ZM32.4107 41.3768L25.2019 27.9377H30.1742L37.5228 41.3768H32.4107Z" fill="white"/>
</svg>
