<?xml version="1.0" encoding="UTF-8"?>
<svg xmlns="http://www.w3.org/2000/svg" xmlns:xlink="http://www.w3.org/1999/xlink" width="198px" height="38px" viewBox="0 0 197 38" version="1.1">
<g id="surface1">
<path style=" stroke:none;fill-rule:nonzero;fill:rgb(0%,0%,0%);fill-opacity:1;" d="M 1.980469 30.085938 L 1.980469 5.386719 L 10.765625 5.386719 C 12.667969 5.386719 14.246094 5.714844 15.503906 6.378906 C 16.757812 7.03125 17.699219 7.945312 18.324219 9.113281 C 18.953125 10.277344 19.265625 11.617188 19.265625 13.144531 C 19.265625 14.648438 18.953125 15.972656 18.324219 17.121094 C 17.699219 18.273438 16.75 19.160156 15.484375 19.792969 C 14.230469 20.421875 12.644531 20.738281 10.730469 20.738281 L 4.109375 20.738281 L 4.109375 17.554688 L 10.382812 17.554688 C 11.605469 17.554688 12.589844 17.375 13.339844 17.023438 C 14.097656 16.667969 14.648438 16.167969 14.992188 15.515625 C 15.34375 14.863281 15.519531 14.070312 15.519531 13.144531 C 15.519531 12.203125 15.34375 11.398438 14.992188 10.722656 C 14.636719 10.039062 14.082031 9.511719 13.324219 9.148438 C 12.574219 8.773438 11.589844 8.585938 10.367188 8.585938 L 5.695312 8.585938 L 5.695312 30.085938 Z M 15.980469 30.085938 L 10.019531 18.929688 L 14.132812 18.929688 L 20.207031 30.085938 Z M 29.15625 30.46875 C 27.351562 30.46875 25.789062 30.074219 24.46875 29.289062 C 23.148438 28.507812 22.128906 27.402344 21.414062 25.976562 C 20.707031 24.539062 20.355469 22.863281 20.355469 20.953125 C 20.355469 19.050781 20.703125 17.375 21.398438 15.929688 C 22.101562 14.480469 23.085938 13.355469 24.351562 12.546875 C 25.628906 11.730469 27.125 11.320312 28.84375 11.320312 C 29.886719 11.320312 30.902344 11.492188 31.878906 11.835938 C 32.859375 12.175781 33.738281 12.71875 34.519531 13.457031 C 35.304688 14.199219 35.917969 15.160156 36.371094 16.34375 C 36.832031 17.527344 37.0625 18.953125 37.0625 20.621094 L 37.0625 21.914062 L 22.386719 21.914062 L 22.386719 19.210938 L 35.214844 19.210938 L 33.546875 20.105469 C 33.546875 18.96875 33.371094 17.960938 33.019531 17.089844 C 32.667969 16.214844 32.136719 15.535156 31.433594 15.050781 C 30.742188 14.554688 29.875 14.304688 28.84375 14.304688 C 27.808594 14.304688 26.921875 14.554688 26.183594 15.050781 C 25.457031 15.546875 24.902344 16.207031 24.515625 17.023438 C 24.132812 17.839844 23.9375 18.734375 23.9375 19.707031 L 23.9375 21.550781 C 23.9375 22.820312 24.160156 23.898438 24.597656 24.78125 C 25.039062 25.664062 25.652344 26.339844 26.433594 26.804688 C 27.222656 27.269531 28.144531 27.5 29.1875 27.5 C 29.871094 27.5 30.488281 27.402344 31.039062 27.203125 C 31.597656 27.003906 32.082031 26.703125 32.492188 26.308594 C 32.898438 25.910156 33.207031 25.417969 33.414062 24.832031 L 36.816406 25.476562 C 36.542969 26.472656 36.058594 27.347656 35.363281 28.097656 C 34.671875 28.847656 33.796875 29.433594 32.738281 29.855469 C 31.691406 30.261719 30.5 30.46875 29.15625 30.46875 Z M 46.589844 37.414062 C 44.390625 37.414062 42.65625 37 41.390625 36.171875 C 40.125 35.34375 39.25 34.359375 38.765625 33.21875 L 41.835938 31.945312 C 42.054688 32.296875 42.347656 32.671875 42.710938 33.070312 C 43.085938 33.46875 43.585938 33.804688 44.214844 34.082031 C 44.839844 34.359375 45.648438 34.496094 46.640625 34.496094 C 47.992188 34.496094 49.117188 34.164062 50.007812 33.5 C 50.898438 32.851562 51.34375 31.800781 51.34375 30.351562 L 51.34375 26.722656 L 51.097656 26.722656 C 50.898438 27.109375 50.597656 27.542969 50.1875 28.03125 C 49.78125 28.507812 49.226562 28.921875 48.523438 29.273438 C 47.816406 29.628906 46.898438 29.804688 45.765625 29.804688 C 44.3125 29.804688 43.003906 29.460938 41.835938 28.777344 C 40.679688 28.082031 39.753906 27.0625 39.0625 25.726562 C 38.378906 24.378906 38.039062 22.71875 38.039062 20.753906 C 38.039062 18.785156 38.375 17.101562 39.046875 15.695312 C 39.726562 14.28125 40.652344 13.199219 41.820312 12.449219 C 42.984375 11.695312 44.3125 11.320312 45.796875 11.320312 C 46.941406 11.320312 47.867188 11.511719 48.570312 11.898438 C 49.285156 12.277344 49.84375 12.71875 50.238281 13.226562 C 50.636719 13.734375 50.941406 14.183594 51.164062 14.570312 L 51.425781 14.570312 L 51.425781 11.550781 L 54.910156 11.550781 L 54.910156 30.5 C 54.910156 32.09375 54.542969 33.398438 53.804688 34.414062 C 53.078125 35.429688 52.089844 36.183594 50.832031 36.667969 C 49.578125 37.164062 48.164062 37.414062 46.589844 37.414062 Z M 46.558594 26.804688 C 48.109375 26.804688 49.296875 26.269531 50.125 25.195312 C 50.960938 24.113281 51.378906 22.617188 51.378906 20.703125 C 51.378906 19.453125 51.195312 18.359375 50.832031 17.421875 C 50.46875 16.46875 49.929688 15.730469 49.214844 15.199219 C 48.5 14.65625 47.613281 14.386719 46.558594 14.386719 C 45.480469 14.386719 44.578125 14.667969 43.851562 15.234375 C 43.132812 15.785156 42.59375 16.542969 42.230469 17.503906 C 41.867188 18.453125 41.6875 19.519531 41.6875 20.703125 C 41.6875 21.90625 41.867188 22.976562 42.230469 23.902344 C 42.59375 24.820312 43.140625 25.535156 43.867188 26.042969 C 44.605469 26.550781 45.5 26.804688 46.558594 26.804688 Z M 57.667969 30.085938 L 57.667969 11.550781 L 61.234375 11.550781 L 61.234375 30.085938 Z M 59.46875 8.699219 C 58.839844 8.699219 58.308594 8.492188 57.867188 8.070312 C 57.425781 7.652344 57.207031 7.148438 57.207031 6.5625 C 57.207031 5.964844 57.425781 5.457031 57.867188 5.035156 C 58.308594 4.617188 58.839844 4.40625 59.46875 4.40625 C 60.085938 4.40625 60.613281 4.617188 61.054688 5.035156 C 61.503906 5.457031 61.730469 5.964844 61.730469 6.5625 C 61.730469 7.148438 61.503906 7.652344 61.054688 8.070312 C 60.613281 8.492188 60.085938 8.699219 59.46875 8.699219 Z M 77.792969 16.09375 L 74.542969 16.660156 C 74.332031 16.039062 73.941406 15.46875 73.371094 14.949219 C 72.808594 14.429688 71.964844 14.171875 70.84375 14.171875 C 69.832031 14.171875 68.984375 14.402344 68.300781 14.867188 C 67.628906 15.320312 67.292969 15.902344 67.292969 16.609375 C 67.292969 17.226562 67.519531 17.730469 67.972656 18.117188 C 68.433594 18.503906 69.164062 18.8125 70.167969 19.046875 L 73.121094 19.707031 C 74.804688 20.09375 76.066406 20.703125 76.902344 21.53125 C 77.738281 22.359375 78.15625 23.421875 78.15625 24.714844 C 78.15625 25.832031 77.839844 26.828125 77.199219 27.699219 C 76.5625 28.5625 75.675781 29.242188 74.542969 29.738281 C 73.410156 30.226562 72.097656 30.46875 70.613281 30.46875 C 68.542969 30.46875 66.859375 30.019531 65.5625 29.125 C 64.261719 28.230469 63.464844 26.96875 63.167969 25.34375 L 66.617188 24.816406 C 66.835938 25.722656 67.285156 26.40625 67.953125 26.871094 C 68.636719 27.335938 69.515625 27.566406 70.597656 27.566406 C 71.761719 27.566406 72.699219 27.316406 73.402344 26.820312 C 74.117188 26.324219 74.476562 25.722656 74.476562 25.015625 C 74.476562 23.84375 73.605469 23.050781 71.867188 22.644531 L 68.746094 21.945312 C 67.019531 21.550781 65.742188 20.925781 64.917969 20.074219 C 64.101562 19.210938 63.695312 18.128906 63.695312 16.824219 C 63.695312 15.730469 63.996094 14.769531 64.601562 13.941406 C 65.21875 13.109375 66.0625 12.46875 67.128906 12.015625 C 68.207031 11.550781 69.433594 11.320312 70.8125 11.320312 C 72.8125 11.320312 74.382812 11.757812 75.515625 12.628906 C 76.660156 13.503906 77.417969 14.65625 77.792969 16.09375 Z M 88.574219 11.550781 L 88.574219 14.453125 L 78.503906 14.453125 L 78.503906 11.550781 Z M 81.195312 7.140625 L 84.777344 7.140625 L 84.777344 24.648438 C 84.777344 25.5 84.953125 26.125 85.304688 26.523438 C 85.660156 26.910156 86.226562 27.101562 87.007812 27.101562 C 87.195312 27.101562 87.390625 27.089844 87.601562 27.070312 C 87.820312 27.046875 88.042969 27.015625 88.261719 26.96875 L 88.9375 29.953125 C 88.574219 30.074219 88.179688 30.167969 87.75 30.234375 C 87.320312 30.300781 86.890625 30.335938 86.460938 30.335938 C 84.867188 30.335938 83.589844 29.886719 82.632812 28.992188 C 81.675781 28.085938 81.195312 26.882812 81.195312 25.378906 Z M 98.21875 30.46875 C 96.414062 30.46875 94.847656 30.074219 93.527344 29.289062 C 92.207031 28.507812 91.191406 27.402344 90.472656 25.976562 C 89.769531 24.539062 89.417969 22.863281 89.417969 20.953125 C 89.417969 19.050781 89.765625 17.375 90.457031 15.929688 C 91.164062 14.480469 92.148438 13.355469 93.414062 12.546875 C 94.691406 11.730469 96.1875 11.320312 97.902344 11.320312 C 98.949219 11.320312 99.960938 11.492188 100.941406 11.835938 C 101.921875 12.175781 102.800781 12.71875 103.582031 13.457031 C 104.363281 14.199219 104.980469 15.160156 105.433594 16.34375 C 105.894531 17.527344 106.125 18.953125 106.125 20.621094 L 106.125 21.914062 L 91.449219 21.914062 L 91.449219 19.210938 L 104.277344 19.210938 L 102.609375 20.105469 C 102.609375 18.96875 102.433594 17.960938 102.082031 17.089844 C 101.726562 16.214844 101.199219 15.535156 100.496094 15.050781 C 99.800781 14.554688 98.9375 14.304688 97.902344 14.304688 C 96.867188 14.304688 95.984375 14.554688 95.246094 15.050781 C 94.519531 15.546875 93.964844 16.207031 93.578125 17.023438 C 93.191406 17.839844 93 18.734375 93 19.707031 L 93 21.550781 C 93 22.820312 93.21875 23.898438 93.660156 24.78125 C 94.101562 25.664062 94.710938 26.339844 95.492188 26.804688 C 96.285156 27.269531 97.203125 27.5 98.25 27.5 C 98.933594 27.5 99.550781 27.402344 100.097656 27.203125 C 100.660156 27.003906 101.144531 26.703125 101.550781 26.308594 C 101.960938 25.910156 102.269531 25.417969 102.476562 24.832031 L 105.878906 25.476562 C 105.601562 26.472656 105.117188 27.347656 104.425781 28.097656 C 103.730469 28.847656 102.855469 29.433594 101.800781 29.855469 C 100.753906 30.261719 99.558594 30.46875 98.21875 30.46875 Z M 107.957031 30.085938 L 107.957031 11.550781 L 111.410156 11.550781 L 111.410156 14.519531 L 111.605469 14.519531 C 111.949219 13.523438 112.542969 12.742188 113.390625 12.164062 C 114.25 11.578125 115.21875 11.285156 116.296875 11.285156 C 116.515625 11.285156 116.773438 11.296875 117.070312 11.320312 C 117.378906 11.332031 117.625 11.347656 117.816406 11.371094 L 117.816406 14.816406 C 117.671875 14.773438 117.414062 14.730469 117.039062 14.6875 C 116.675781 14.640625 116.308594 14.621094 115.933594 14.621094 C 115.085938 14.621094 114.324219 14.800781 113.65625 15.167969 C 112.992188 15.519531 112.472656 16.011719 112.085938 16.640625 C 111.710938 17.261719 111.523438 17.980469 111.523438 18.796875 L 111.523438 30.085938 Z M 107.957031 30.085938 "/>
<path style=" stroke:none;fill-rule:nonzero;fill:rgb(21.568628%,59.215689%,31.764707%);fill-opacity:1;" d="M 126.882812 6.691406 C 126.882812 4.847656 128.371094 3.351562 130.207031 3.351562 L 192.613281 3.351562 C 194.445312 3.351562 195.9375 4.847656 195.9375 6.691406 L 195.9375 27.058594 C 195.9375 28.902344 194.445312 30.398438 192.613281 30.398438 L 130.207031 30.398438 C 128.371094 30.398438 126.882812 28.902344 126.882812 27.058594 Z M 126.882812 6.691406 "/>
<path style=" stroke:none;fill-rule:nonzero;fill:rgb(100%,100%,100%);fill-opacity:1;" d="M 147.773438 13.328125 L 144.179688 13.328125 L 144.179688 15.574219 L 147.203125 15.574219 L 147.203125 17.289062 L 144.167969 17.289062 L 144.167969 20.117188 L 142.246094 20.117188 L 142.246094 11.617188 L 147.773438 11.617188 Z M 155.210938 11.617188 L 155.210938 16.960938 C 155.210938 19 153.894531 20.277344 151.8125 20.277344 C 149.707031 20.277344 148.390625 19 148.390625 16.960938 L 148.390625 11.617188 L 150.324219 11.617188 L 150.324219 16.972656 C 150.324219 17.96875 150.90625 18.601562 151.8125 18.601562 C 152.71875 18.601562 153.277344 17.96875 153.277344 16.972656 L 153.277344 11.617188 Z M 162.292969 11.617188 L 164.117188 11.617188 L 164.117188 20.117188 L 161.671875 20.117188 L 159.449219 16.316406 L 158.371094 14.324219 L 158.371094 20.117188 L 156.582031 20.117188 L 156.582031 11.617188 L 159 11.617188 L 161.40625 15.832031 L 162.292969 17.484375 Z M 168.632812 11.617188 C 171.292969 11.617188 172.960938 13.257812 172.960938 15.84375 C 172.960938 18.476562 171.292969 20.117188 168.632812 20.117188 L 165.671875 20.117188 L 165.671875 11.617188 Z M 168.574219 18.464844 C 170.023438 18.464844 170.929688 17.457031 170.929688 15.84375 C 170.929688 14.265625 170.023438 13.269531 168.574219 13.269531 L 167.605469 13.269531 L 167.605469 18.464844 Z M 177.371094 20.277344 C 175.230469 20.277344 173.9375 19.171875 173.648438 17.738281 L 175.582031 17.410156 C 175.824219 18.273438 176.441406 18.707031 177.335938 18.707031 C 178.097656 18.707031 178.546875 18.40625 178.546875 17.859375 C 178.546875 16.171875 173.960938 16.9375 173.960938 13.960938 C 173.960938 12.25 175.351562 11.421875 177.09375 11.421875 C 178.96875 11.421875 180.058594 12.453125 180.324219 13.828125 L 178.410156 14.144531 C 178.207031 13.460938 177.746094 12.976562 177.023438 12.976562 C 176.320312 12.976562 175.910156 13.367188 175.910156 13.839844 C 175.910156 15.355469 180.492188 14.675781 180.492188 17.664062 C 180.492188 19.265625 179.285156 20.277344 177.371094 20.277344 Z M 177.371094 20.277344 "/>
</g>
</svg>
