<svg width="176" height="32" viewBox="0 0 176 32" fill="none" xmlns="http://www.w3.org/2000/svg">
<path d="M95.9982 24.9055V8.32205H99.0983V10.9772H99.2763C99.5829 10.0872 100.117 9.38509 100.878 8.87087C101.65 8.34677 102.52 8.08472 103.489 8.08472C103.687 8.08472 103.919 8.09461 104.186 8.11438C104.463 8.12427 104.685 8.13911 104.854 8.15888V11.2442C104.725 11.2046 104.493 11.1651 104.156 11.1255C103.83 11.086 103.499 11.0662 103.163 11.0662C102.401 11.0662 101.719 11.2293 101.116 11.5557C100.522 11.8721 100.053 12.3122 99.7065 12.8758C99.3702 13.4296 99.2021 14.0724 99.2021 14.8041V24.9055H95.9982Z" fill="white"/>
<path d="M87.246 25.2466C85.6243 25.2466 84.2201 24.8955 83.0334 24.1934C81.8468 23.4913 80.9321 22.5024 80.2893 21.2268C79.6564 19.9412 79.34 18.4431 79.34 16.7323C79.34 15.0315 79.6515 13.5333 80.2745 12.2379C80.9073 10.9424 81.7924 9.93379 82.9296 9.21191C84.0767 8.48014 85.4216 8.11426 86.9642 8.11426C87.9036 8.11426 88.8134 8.26753 89.6935 8.57409C90.5736 8.88064 91.3647 9.36519 92.0668 10.0277C92.7689 10.6903 93.3227 11.5506 93.7281 12.6087C94.1435 13.6668 94.3511 14.9425 94.3511 16.4357V17.5926H81.1644V15.1748H92.6898L91.1917 15.9758C91.1917 14.9573 91.0334 14.0574 90.717 13.2762C90.4006 12.495 89.9259 11.8868 89.293 11.4517C88.67 11.0067 87.8938 10.7842 86.9642 10.7842C86.0347 10.7842 85.2386 11.0067 84.5761 11.4517C83.9234 11.8967 83.424 12.4851 83.0779 13.2169C82.7318 13.9486 82.5588 14.7496 82.5588 15.6198V17.2663C82.5588 18.4035 82.7565 19.3677 83.1521 20.1588C83.5476 20.9499 84.0965 21.5531 84.7986 21.9684C85.5106 22.3838 86.3363 22.5914 87.2757 22.5914C87.8888 22.5914 88.4426 22.5024 88.937 22.3244C89.4413 22.1464 89.8765 21.8794 90.2423 21.5234C90.6082 21.1674 90.8851 20.7274 91.073 20.2033L94.1286 20.7818C93.8814 21.6718 93.4463 22.453 92.8233 23.1254C92.2003 23.7979 91.4142 24.322 90.4648 24.6977C89.5254 25.0636 88.4525 25.2466 87.246 25.2466Z" fill="white"/>
<path d="M78.5829 8.32209V10.9179H69.5347V8.32209H78.5829ZM71.9525 4.37646H75.1713V20.0403C75.1713 20.8017 75.3295 21.3604 75.6459 21.7164C75.9624 22.0625 76.4716 22.2356 77.1737 22.2356C77.3419 22.2356 77.5199 22.2257 77.7077 22.2059C77.9055 22.1861 78.1033 22.1565 78.3011 22.1169L78.9092 24.7869C78.5829 24.8957 78.2269 24.9797 77.8412 25.0391C77.4556 25.0984 77.0699 25.1281 76.6842 25.1281C75.2504 25.1281 74.1033 24.7276 73.243 23.9266C72.3826 23.1157 71.9525 22.0378 71.9525 20.6929V4.37646Z" fill="white"/>
<path d="M68.8962 12.3862L65.9741 12.8905C65.7862 12.3368 65.4351 11.8275 64.9209 11.3627C64.4166 10.8979 63.6601 10.6656 62.6514 10.6656C61.7417 10.6656 60.9802 10.8732 60.3671 11.2886C59.7639 11.694 59.4623 12.2132 59.4623 12.846C59.4623 13.3998 59.665 13.8497 60.0705 14.1959C60.4858 14.542 61.1434 14.8188 62.0433 15.0265L64.6984 15.6198C66.2114 15.9659 67.3437 16.5098 68.0952 17.2515C68.8468 17.9931 69.2225 18.9425 69.2225 20.0995C69.2225 21.0982 68.9358 21.9882 68.3622 22.7694C67.7887 23.5407 66.9926 24.1489 65.9741 24.5939C64.9555 25.029 63.7788 25.2466 62.4438 25.2466C60.5847 25.2466 59.0717 24.8461 57.9048 24.0451C56.738 23.2441 56.021 22.1168 55.754 20.6631L58.8542 20.1885C59.0519 20.9993 59.4524 21.6124 60.0556 22.0278C60.6687 22.4431 61.4599 22.6508 62.429 22.6508C63.4772 22.6508 64.3177 22.4283 64.9506 21.9833C65.5934 21.5383 65.9147 20.9993 65.9147 20.3665C65.9147 19.3182 65.1335 18.6112 63.5711 18.2453L60.7676 17.6223C59.2151 17.2663 58.068 16.7076 57.3263 15.9462C56.5946 15.1748 56.2287 14.2057 56.2287 13.0389C56.2287 12.0599 56.5006 11.1996 57.0445 10.4579C57.5983 9.71624 58.3548 9.14269 59.314 8.73725C60.2831 8.32192 61.3857 8.11426 62.6218 8.11426C64.4215 8.11426 65.8307 8.50487 66.8492 9.28608C67.8777 10.0673 68.56 11.1007 68.8962 12.3862Z" fill="white"/>
<path d="M50.814 24.9055V8.32205H54.018V24.9055H50.814ZM52.4308 5.77074C51.8672 5.77074 51.3876 5.58286 50.992 5.20708C50.5965 4.83131 50.3987 4.38137 50.3987 3.85727C50.3987 3.32327 50.5965 2.86839 50.992 2.49262C51.3876 2.11684 51.8672 1.92896 52.4308 1.92896C52.9846 1.92896 53.4593 2.11684 53.8548 2.49262C54.2602 2.86839 54.463 3.32327 54.463 3.85727C54.463 4.38137 54.2602 4.83131 53.8548 5.20708C53.4593 5.58286 52.9846 5.77074 52.4308 5.77074Z" fill="white"/>
<path d="M40.8603 31.4617C38.8826 31.4617 37.3251 31.0908 36.1879 30.3492C35.0507 29.6075 34.2645 28.7274 33.8294 27.7089L36.5884 26.5667C36.7862 26.8832 37.0482 27.2194 37.3745 27.5754C37.7108 27.9314 38.1607 28.233 38.7244 28.4802C39.288 28.7274 40.0148 28.851 40.9048 28.851C42.1212 28.851 43.1298 28.5544 43.9308 27.961C44.7318 27.3776 45.1323 26.4382 45.1323 25.1427V21.8943H44.9098C44.7318 22.2404 44.4599 22.631 44.094 23.0661C43.7281 23.4913 43.2287 23.8621 42.5958 24.1786C41.9629 24.495 41.1372 24.6532 40.1187 24.6532C38.8134 24.6532 37.6366 24.3467 36.5884 23.7336C35.5501 23.1106 34.7194 22.2008 34.0964 21.0043C33.4833 19.7978 33.1768 18.3145 33.1768 16.5543C33.1768 14.7941 33.4784 13.2861 34.0816 12.0302C34.6947 10.7645 35.5253 9.79535 36.5736 9.12291C37.6218 8.45048 38.8134 8.11426 40.1483 8.11426C41.1768 8.11426 42.0074 8.28731 42.6403 8.63342C43.2831 8.96964 43.7825 9.36519 44.1385 9.82007C44.4945 10.275 44.7713 10.6755 44.9691 11.0216H45.2065V8.32192H48.3363V25.2762C48.3363 26.7002 48.005 27.8671 47.3424 28.7769C46.6898 29.6866 45.7998 30.3591 44.6725 30.7942C43.5451 31.2392 42.2744 31.4617 40.8603 31.4617ZM40.8307 21.9684C42.225 21.9684 43.293 21.4888 44.0346 20.5296C44.7862 19.5605 45.162 18.2206 45.162 16.5098C45.162 15.3924 44.9988 14.4134 44.6725 13.5729C44.3461 12.7224 43.8616 12.0599 43.2188 11.5852C42.576 11.1007 41.78 10.8584 40.8307 10.8584C39.8616 10.8584 39.0507 11.1106 38.398 11.6149C37.7553 12.1093 37.2707 12.7867 36.9444 13.647C36.6181 14.4975 36.4549 15.4517 36.4549 16.5098C36.4549 17.5877 36.6181 18.542 36.9444 19.3726C37.2707 20.1934 37.7602 20.8312 38.4129 21.2861C39.0754 21.741 39.8813 21.9684 40.8307 21.9684Z" fill="white"/>
<path d="M25.196 25.2466C23.5742 25.2466 22.17 24.8955 20.9834 24.1934C19.7967 23.4913 18.882 22.5024 18.2392 21.2268C17.6064 19.9412 17.2899 18.4431 17.2899 16.7323C17.2899 15.0315 17.6014 13.5333 18.2244 12.2379C18.8573 10.9424 19.7423 9.93379 20.8795 9.21191C22.0266 8.48014 23.3715 8.11426 24.9142 8.11426C25.8536 8.11426 26.7634 8.26753 27.6435 8.57409C28.5236 8.88064 29.3147 9.36519 30.0168 10.0277C30.7189 10.6903 31.2726 11.5506 31.6781 12.6087C32.0934 13.6668 32.3011 14.9425 32.3011 16.4357V17.5926H19.1144V15.1748H30.6398L29.1416 15.9758C29.1416 14.9573 28.9834 14.0574 28.667 13.2762C28.3505 12.495 27.8759 11.8868 27.243 11.4517C26.62 11.0067 25.8437 10.7842 24.9142 10.7842C23.9846 10.7842 23.1886 11.0067 22.526 11.4517C21.8734 11.8967 21.374 12.4851 21.0279 13.2169C20.6818 13.9486 20.5087 14.7496 20.5087 15.6198V17.2663C20.5087 18.4035 20.7065 19.3677 21.102 20.1588C21.4976 20.9499 22.0464 21.5531 22.7485 21.9684C23.4605 22.3838 24.2862 22.5914 25.2257 22.5914C25.8388 22.5914 26.3925 22.5024 26.887 22.3244C27.3913 22.1464 27.8264 21.8794 28.1923 21.5234C28.5582 21.1674 28.8351 20.7274 29.0229 20.2033L32.0786 20.7818C31.8314 21.6718 31.3963 22.453 30.7733 23.1254C30.1503 23.7979 29.3641 24.322 28.4148 24.6977C27.4754 25.0636 26.4024 25.2466 25.196 25.2466Z" fill="white"/>
<path d="M0.780029 24.9056V2.8042H8.67127C10.382 2.8042 11.8011 3.10086 12.9284 3.69419C14.0557 4.27763 14.9012 5.09345 15.4649 6.14166C16.0285 7.17998 16.3104 8.38147 16.3104 9.74612C16.3104 11.091 16.0285 12.2776 15.4649 13.3061C14.9012 14.3345 14.0508 15.1306 12.9136 15.6942C11.7862 16.2579 10.3623 16.5397 8.64161 16.5397H2.69351V13.6917H8.33011C9.42776 13.6917 10.3128 13.5335 10.9852 13.2171C11.6676 12.9006 12.162 12.4507 12.4686 11.8673C12.785 11.2838 12.9432 10.5768 12.9432 9.74612C12.9432 8.90557 12.785 8.18369 12.4686 7.58048C12.1521 6.96737 11.6527 6.49766 10.9704 6.17133C10.298 5.83511 9.41293 5.667 8.31528 5.667H4.11749V24.9056H0.780029ZM13.3586 24.9056L8.00378 14.9229H11.6972L17.1558 24.9056H13.3586Z" fill="white"/>
<path d="M113 3.97313C113 2.3233 114.337 0.98584 115.987 0.98584H172.057C173.706 0.98584 175.044 2.3233 175.044 3.97313V22.1956C175.044 23.8455 173.706 25.1829 172.057 25.1829H115.987C114.337 25.1829 113 23.8455 113 22.1956V3.97313Z" fill="#379751"/>
<path d="M158.365 16.127C156.442 16.127 155.279 15.1382 155.018 13.8561L156.757 13.5627C156.974 14.3342 157.528 14.7253 158.332 14.7253C159.017 14.7253 159.419 14.4537 159.419 13.9648C159.419 12.4545 155.301 13.139 155.301 10.4769C155.301 8.94491 156.55 8.20605 158.115 8.20605C159.799 8.20605 160.777 9.12962 161.016 10.3574L159.299 10.6399C159.114 10.0315 158.702 9.59684 158.05 9.59684C157.419 9.59684 157.05 9.94453 157.05 10.3683C157.05 11.7265 161.168 11.118 161.168 13.7909C161.168 15.2252 160.081 16.127 158.365 16.127Z" fill="white"/>
<path d="M150.513 8.37988C152.904 8.37988 154.403 9.84672 154.403 12.1611C154.403 14.5189 152.904 15.9857 150.513 15.9857H147.851V8.37988H150.513ZM150.459 14.508C151.763 14.508 152.578 13.6062 152.578 12.1611C152.578 10.7486 151.763 9.85759 150.459 9.85759H149.59V14.508H150.459Z" fill="white"/>
<path d="M144.815 8.37988H146.455V15.9857H144.26L142.261 12.5848L141.294 10.8029V15.9857H139.686V8.37988H141.859L144.021 12.1502L144.815 13.6279V8.37988Z" fill="white"/>
<path d="M138.453 8.37988V13.1607C138.453 14.9861 137.269 16.127 135.4 16.127C133.51 16.127 132.325 14.9861 132.325 13.1607V8.37988H134.064V13.1716C134.064 14.0625 134.585 14.6275 135.4 14.6275C136.215 14.6275 136.715 14.0625 136.715 13.1716V8.37988H138.453Z" fill="white"/>
<path d="M131.77 9.91191H128.543V11.922H131.259V13.4541H128.532V15.9857H126.804V8.37988H131.77V9.91191Z" fill="white"/>
</svg>
