<svg width="176" height="31" viewBox="0 0 176 31" fill="none" xmlns="http://www.w3.org/2000/svg">
<path d="M95.9982 23.9197V7.33621H99.0983V9.99134H99.2763C99.5829 9.10135 100.117 8.39925 100.878 7.88503C101.65 7.36093 102.52 7.09888 103.489 7.09888C103.687 7.09888 103.919 7.10877 104.186 7.12854C104.463 7.13843 104.685 7.15327 104.854 7.17304V10.2583C104.725 10.2188 104.493 10.1792 104.156 10.1397C103.83 10.1001 103.499 10.0803 103.163 10.0803C102.401 10.0803 101.719 10.2435 101.116 10.5698C100.522 10.8863 100.053 11.3263 99.7065 11.89C99.3702 12.4438 99.2021 13.0865 99.2021 13.8183V23.9197H95.9982Z" fill="black"/>
<path d="M87.246 24.2607C85.6243 24.2607 84.2201 23.9097 83.0334 23.2076C81.8468 22.5055 80.9321 21.5166 80.2893 20.2409C79.6564 18.9554 79.34 17.4572 79.34 15.7465C79.34 14.0456 79.6515 12.5475 80.2745 11.252C80.9073 9.95661 81.7924 8.94795 82.9296 8.22607C84.0767 7.4943 85.4216 7.12842 86.9642 7.12842C87.9036 7.12842 88.8134 7.28169 89.6935 7.58825C90.5736 7.8948 91.3647 8.37935 92.0668 9.0419C92.7689 9.70444 93.3227 10.5648 93.7281 11.6229C94.1435 12.681 94.3511 13.9566 94.3511 15.4498V16.6068H81.1644V14.189H92.6898L91.1917 14.99C91.1917 13.9715 91.0334 13.0716 90.717 12.2904C90.4006 11.5091 89.9259 10.901 89.293 10.4659C88.67 10.0209 87.8938 9.79839 86.9642 9.79839C86.0347 9.79839 85.2386 10.0209 84.5761 10.4659C83.9234 10.9109 83.424 11.4993 83.0779 12.231C82.7318 12.9628 82.5588 13.7638 82.5588 14.634V16.2805C82.5588 17.4177 82.7565 18.3818 83.1521 19.1729C83.5476 19.964 84.0965 20.5673 84.7986 20.9826C85.5106 21.3979 86.3363 21.6056 87.2757 21.6056C87.8888 21.6056 88.4426 21.5166 88.937 21.3386C89.4413 21.1606 89.8765 20.8936 90.2423 20.5376C90.6082 20.1816 90.8851 19.7416 91.073 19.2174L94.1286 19.7959C93.8814 20.6859 93.4463 21.4671 92.8233 22.1396C92.2003 22.812 91.4142 23.3361 90.4648 23.7119C89.5254 24.0778 88.4525 24.2607 87.246 24.2607Z" fill="black"/>
<path d="M78.5829 7.33625V9.93205H69.5347V7.33625H78.5829ZM71.9525 3.39062H75.1713V19.0544C75.1713 19.8159 75.3295 20.3746 75.6459 20.7306C75.9624 21.0767 76.4716 21.2498 77.1737 21.2498C77.3419 21.2498 77.5199 21.2399 77.7077 21.2201C77.9055 21.2003 78.1033 21.1706 78.3011 21.1311L78.9092 23.8011C78.5829 23.9098 78.2269 23.9939 77.8412 24.0532C77.4556 24.1126 77.0699 24.1422 76.6842 24.1422C75.2504 24.1422 74.1033 23.7417 73.243 22.9407C72.3826 22.1299 71.9525 21.052 71.9525 19.7071V3.39062Z" fill="black"/>
<path d="M68.8962 11.4004L65.9741 11.9047C65.7862 11.3509 65.4351 10.8417 64.9209 10.3769C64.4166 9.91211 63.6601 9.67972 62.6514 9.67972C61.7417 9.67972 60.9802 9.88739 60.3671 10.3027C59.7639 10.7082 59.4623 11.2273 59.4623 11.8602C59.4623 12.414 59.665 12.8639 60.0705 13.21C60.4858 13.5561 61.1434 13.833 62.0433 14.0407L64.6984 14.634C66.2114 14.9801 67.3437 15.524 68.0952 16.2656C68.8468 17.0073 69.2225 17.9566 69.2225 19.1136C69.2225 20.1124 68.9358 21.0024 68.3622 21.7836C67.7887 22.5549 66.9926 23.1631 65.9741 23.6081C64.9555 24.0432 63.7788 24.2607 62.4438 24.2607C60.5847 24.2607 59.0717 23.8602 57.9048 23.0592C56.738 22.2582 56.021 21.1309 55.754 19.6773L58.8542 19.2026C59.0519 20.0135 59.4524 20.6266 60.0556 21.0419C60.6687 21.4573 61.4599 21.6649 62.429 21.6649C63.4772 21.6649 64.3177 21.4424 64.9506 20.9974C65.5934 20.5524 65.9147 20.0135 65.9147 19.3806C65.9147 18.3324 65.1335 17.6254 63.5711 17.2595L60.7676 16.6365C59.2151 16.2805 58.068 15.7218 57.3263 14.9603C56.5946 14.189 56.2287 13.2199 56.2287 12.053C56.2287 11.074 56.5006 10.2137 57.0445 9.47206C57.5983 8.7304 58.3548 8.15685 59.314 7.75141C60.2831 7.33608 61.3857 7.12842 62.6218 7.12842C64.4215 7.12842 65.8307 7.51903 66.8492 8.30024C67.8777 9.08145 68.56 10.1148 68.8962 11.4004Z" fill="black"/>
<path d="M50.814 23.9197V7.33621H54.018V23.9197H50.814ZM52.4308 4.7849C51.8672 4.7849 51.3876 4.59702 50.992 4.22124C50.5965 3.84547 50.3987 3.39553 50.3987 2.87143C50.3987 2.33743 50.5965 1.88255 50.992 1.50678C51.3876 1.131 51.8672 0.943115 52.4308 0.943115C52.9846 0.943115 53.4593 1.131 53.8548 1.50678C54.2602 1.88255 54.463 2.33743 54.463 2.87143C54.463 3.39553 54.2602 3.84547 53.8548 4.22124C53.4593 4.59702 52.9846 4.7849 52.4308 4.7849Z" fill="black"/>
<path d="M40.8603 30.4758C38.8826 30.4758 37.3251 30.105 36.1879 29.3633C35.0507 28.6217 34.2645 27.7416 33.8294 26.723L36.5884 25.5809C36.7862 25.8973 37.0482 26.2335 37.3745 26.5895C37.7108 26.9455 38.1607 27.2471 38.7244 27.4944C39.288 27.7416 40.0148 27.8652 40.9048 27.8652C42.1212 27.8652 43.1298 27.5685 43.9308 26.9752C44.7318 26.3918 45.1323 25.4523 45.1323 24.1569V20.9084H44.9098C44.7318 21.2545 44.4599 21.6451 44.094 22.0802C43.7281 22.5055 43.2287 22.8763 42.5958 23.1927C41.9629 23.5092 41.1372 23.6674 40.1187 23.6674C38.8134 23.6674 37.6366 23.3608 36.5884 22.7477C35.5501 22.1247 34.7194 21.215 34.0964 20.0184C33.4833 18.812 33.1768 17.3287 33.1768 15.5685C33.1768 13.8083 33.4784 12.3002 34.0816 11.0444C34.6947 9.77861 35.5253 8.80951 36.5736 8.13707C37.6218 7.46464 38.8134 7.12842 40.1483 7.12842C41.1768 7.12842 42.0074 7.30147 42.6403 7.64758C43.2831 7.9838 43.7825 8.37935 44.1385 8.83423C44.4945 9.28912 44.7713 9.68961 44.9691 10.0357H45.2065V7.33608H48.3363V24.2904C48.3363 25.7144 48.005 26.8812 47.3424 27.791C46.6898 28.7008 45.7998 29.3732 44.6725 29.8083C43.5451 30.2533 42.2744 30.4758 40.8603 30.4758ZM40.8307 20.9826C42.225 20.9826 43.293 20.503 44.0346 19.5438C44.7862 18.5747 45.162 17.2347 45.162 15.524C45.162 14.4066 44.9988 13.4276 44.6725 12.587C44.3461 11.7366 43.8616 11.074 43.2188 10.5994C42.576 10.1148 41.78 9.87255 40.8307 9.87255C39.8616 9.87255 39.0507 10.1247 38.398 10.629C37.7553 11.1235 37.2707 11.8009 36.9444 12.6612C36.6181 13.5116 36.4549 14.4659 36.4549 15.524C36.4549 16.6019 36.6181 17.5561 36.9444 18.3868C37.2707 19.2076 37.7602 19.8454 38.4129 20.3003C39.0754 20.7552 39.8813 20.9826 40.8307 20.9826Z" fill="black"/>
<path d="M25.196 24.2607C23.5742 24.2607 22.17 23.9097 20.9834 23.2076C19.7967 22.5055 18.882 21.5166 18.2392 20.2409C17.6064 18.9554 17.2899 17.4572 17.2899 15.7465C17.2899 14.0456 17.6014 12.5475 18.2244 11.252C18.8573 9.95661 19.7423 8.94795 20.8795 8.22607C22.0266 7.4943 23.3715 7.12842 24.9142 7.12842C25.8536 7.12842 26.7634 7.28169 27.6435 7.58825C28.5236 7.8948 29.3147 8.37935 30.0168 9.0419C30.7189 9.70444 31.2726 10.5648 31.6781 11.6229C32.0934 12.681 32.3011 13.9566 32.3011 15.4498V16.6068H19.1144V14.189H30.6398L29.1416 14.99C29.1416 13.9715 28.9834 13.0716 28.667 12.2904C28.3505 11.5091 27.8759 10.901 27.243 10.4659C26.62 10.0209 25.8437 9.79839 24.9142 9.79839C23.9846 9.79839 23.1886 10.0209 22.526 10.4659C21.8734 10.9109 21.374 11.4993 21.0279 12.231C20.6818 12.9628 20.5087 13.7638 20.5087 14.634V16.2805C20.5087 17.4177 20.7065 18.3818 21.102 19.1729C21.4976 19.964 22.0464 20.5673 22.7485 20.9826C23.4605 21.3979 24.2862 21.6056 25.2257 21.6056C25.8388 21.6056 26.3925 21.5166 26.887 21.3386C27.3913 21.1606 27.8264 20.8936 28.1923 20.5376C28.5582 20.1816 28.8351 19.7416 29.0229 19.2174L32.0786 19.7959C31.8314 20.6859 31.3963 21.4671 30.7733 22.1396C30.1503 22.812 29.3641 23.3361 28.4148 23.7119C27.4754 24.0778 26.4024 24.2607 25.196 24.2607Z" fill="black"/>
<path d="M0.780029 23.9198V1.81836H8.67127C10.382 1.81836 11.8011 2.11502 12.9284 2.70835C14.0557 3.29179 14.9012 4.10761 15.4649 5.15582C16.0285 6.19414 16.3104 7.39563 16.3104 8.76028C16.3104 10.1052 16.0285 11.2918 15.4649 12.3202C14.9012 13.3487 14.0508 14.1447 12.9136 14.7084C11.7862 15.272 10.3623 15.5539 8.64161 15.5539H2.69351V12.7059H8.33011C9.42776 12.7059 10.3128 12.5477 10.9852 12.2312C11.6676 11.9148 12.162 11.4649 12.4686 10.8814C12.785 10.298 12.9432 9.59094 12.9432 8.76028C12.9432 7.91973 12.785 7.19785 12.4686 6.59464C12.1521 5.98153 11.6527 5.51182 10.9704 5.18549C10.298 4.84927 9.41293 4.68116 8.31528 4.68116H4.11749V23.9198H0.780029ZM13.3586 23.9198L8.00378 13.9371H11.6972L17.1558 23.9198H13.3586Z" fill="black"/>
<path d="M113 2.98729C113 1.33746 114.337 0 115.987 0H172.057C173.706 0 175.044 1.33746 175.044 2.98729V21.2098C175.044 22.8596 173.706 24.1971 172.057 24.1971H115.987C114.337 24.1971 113 22.8596 113 21.2098V2.98729Z" fill="#379751"/>
<path d="M158.365 15.1411C156.442 15.1411 155.279 14.1524 155.018 12.8703L156.757 12.5769C156.974 13.3483 157.528 13.7395 158.332 13.7395C159.017 13.7395 159.419 13.4679 159.419 12.9789C159.419 11.4686 155.301 12.1531 155.301 9.4911C155.301 7.95907 156.55 7.22021 158.115 7.22021C159.799 7.22021 160.777 8.14378 161.016 9.37158L159.299 9.65408C159.114 9.04561 158.702 8.611 158.05 8.611C157.419 8.611 157.05 8.95869 157.05 9.38244C157.05 10.7406 161.168 10.1322 161.168 12.8051C161.168 14.2393 160.081 15.1411 158.365 15.1411Z" fill="white"/>
<path d="M150.513 7.39404C152.904 7.39404 154.403 8.86088 154.403 11.1752C154.403 13.533 152.904 14.9999 150.513 14.9999H147.851V7.39404H150.513ZM150.459 13.5222C151.763 13.5222 152.578 12.6203 152.578 11.1752C152.578 9.76272 151.763 8.87175 150.459 8.87175H149.59V13.5222H150.459Z" fill="white"/>
<path d="M144.815 7.39404H146.455V14.9999H144.26L142.261 11.599L141.294 9.81704V14.9999H139.686V7.39404H141.859L144.021 11.1644L144.815 12.6421V7.39404Z" fill="white"/>
<path d="M138.453 7.39404V12.1749C138.453 14.0003 137.269 15.1411 135.4 15.1411C133.51 15.1411 132.325 14.0003 132.325 12.1749V7.39404H134.064V12.1857C134.064 13.0767 134.585 13.6417 135.4 13.6417C136.215 13.6417 136.715 13.0767 136.715 12.1857V7.39404H138.453Z" fill="white"/>
<path d="M131.77 8.92607H128.543V10.9362H131.259V12.4682H128.532V14.9999H126.804V7.39404H131.77V8.92607Z" fill="white"/>
</svg>
