<svg width="177" height="34" viewBox="0 0 177 34" fill="none" xmlns="http://www.w3.org/2000/svg">
<path d="M1.77998 26.9197V4.81826H9.67122C11.382 4.81826 12.801 5.11493 13.9283 5.70825C15.0557 6.29169 15.9012 7.10752 16.4648 8.15573C17.0285 9.19405 17.3103 10.3955 17.3103 11.7602C17.3103 13.1051 17.0285 14.2917 16.4648 15.3201C15.9012 16.3486 15.0507 17.1446 13.9135 17.7083C12.7862 18.2719 11.3622 18.5538 9.64156 18.5538H3.69346V15.7058H9.33006C10.4277 15.7058 11.3128 15.5476 11.9852 15.2311C12.6675 14.9147 13.162 14.4648 13.4685 13.8813C13.785 13.2979 13.9432 12.5908 13.9432 11.7602C13.9432 10.9196 13.785 10.1978 13.4685 9.59454C13.1521 8.98144 12.6527 8.51172 11.9704 8.18539C11.2979 7.84917 10.4129 7.68106 9.31523 7.68106H5.11744V26.9197H1.77998ZM14.3585 26.9197L9.00373 16.937H12.6972L18.1558 26.9197H14.3585ZM26.196 27.2608C24.5742 27.2608 23.17 26.9098 21.9833 26.2077C20.7967 25.5056 19.882 24.5167 19.2392 23.2411C18.6063 21.9555 18.2899 20.4574 18.2899 18.7466C18.2899 17.0457 18.6014 15.5476 19.2244 14.2522C19.8573 12.9567 20.7423 11.9481 21.8795 11.2262C23.0266 10.4944 24.3715 10.1285 25.9141 10.1285C26.8536 10.1285 27.7633 10.2818 28.6434 10.5884C29.5235 10.8949 30.3146 11.3795 31.0167 12.042C31.7188 12.7046 32.2726 13.5649 32.6781 14.623C33.0934 15.6811 33.301 16.9567 33.301 18.4499V19.6069H20.1144V17.1891H31.6397L30.1416 17.9901C30.1416 16.9716 29.9834 16.0717 29.6669 15.2905C29.3505 14.5093 28.8758 13.9011 28.2429 13.466C27.6199 13.021 26.8437 12.7985 25.9141 12.7985C24.9846 12.7985 24.1885 13.021 23.526 13.466C22.8733 13.911 22.3739 14.4994 22.0278 15.2311C21.6817 15.9629 21.5087 16.7639 21.5087 17.6341V19.2806C21.5087 20.4178 21.7065 21.382 22.102 22.1731C22.4976 22.9642 23.0464 23.5674 23.7485 23.9827C24.4605 24.398 25.2862 24.6057 26.2256 24.6057C26.8387 24.6057 27.3925 24.5167 27.8869 24.3387C28.3913 24.1607 28.8264 23.8937 29.1923 23.5377C29.5581 23.1817 29.835 22.7417 30.0229 22.2176L33.0785 22.7961C32.8313 23.686 32.3962 24.4673 31.7732 25.1397C31.1502 25.8121 30.3641 26.3362 29.4148 26.712C28.4753 27.0779 27.4024 27.2608 26.196 27.2608ZM41.8604 33.4759C39.8826 33.4759 38.3251 33.1051 37.1879 32.3634C36.0507 31.6218 35.2646 30.7417 34.8295 29.7231L37.5884 28.581C37.7862 28.8974 38.0483 29.2337 38.3746 29.5896C38.7108 29.9456 39.1607 30.2473 39.7244 30.4945C40.2881 30.7417 41.0149 30.8653 41.9049 30.8653C43.1212 30.8653 44.1298 30.5686 44.9308 29.9753C45.7318 29.3919 46.1323 28.4524 46.1323 27.157V23.9085H45.9098C45.7318 24.2547 45.4599 24.6453 45.094 25.0804C44.7281 25.5056 44.2287 25.8764 43.5959 26.1929C42.963 26.5093 42.1373 26.6675 41.1187 26.6675C39.8134 26.6675 38.6366 26.361 37.5884 25.7479C36.5501 25.1249 35.7194 24.2151 35.0965 23.0186C34.4833 21.8121 34.1768 20.3288 34.1768 18.5686C34.1768 16.8084 34.4784 15.3004 35.0816 14.0445C35.6947 12.7787 36.5254 11.8096 37.5736 11.1372C38.6218 10.4648 39.8134 10.1285 41.1484 10.1285C42.1768 10.1285 43.0075 10.3016 43.6404 10.6477C44.2831 10.9839 44.7825 11.3795 45.1385 11.8344C45.4945 12.2892 45.7714 12.6897 45.9692 13.0358H46.2065V10.3362H49.3363V27.2905C49.3363 28.7145 49.005 29.8814 48.3425 30.7911C47.6898 31.7009 46.7998 32.3733 45.6725 32.8084C44.5452 33.2534 43.2745 33.4759 41.8604 33.4759ZM41.8307 23.9827C43.225 23.9827 44.293 23.5031 45.0347 22.5439C45.7862 21.5748 46.162 20.2349 46.162 18.5241C46.162 17.4067 45.9988 16.4277 45.6725 15.5871C45.3462 14.7367 44.8616 14.0742 44.2188 13.5995C43.5761 13.1149 42.78 12.8727 41.8307 12.8727C40.8616 12.8727 40.0507 13.1248 39.3981 13.6292C38.7553 14.1236 38.2707 14.801 37.9444 15.6613C37.6181 16.5117 37.4549 17.466 37.4549 18.5241C37.4549 19.602 37.6181 20.5563 37.9444 21.3869C38.2707 22.2077 38.7602 22.8455 39.4129 23.3004C40.0755 23.7553 40.8814 23.9827 41.8307 23.9827ZM51.814 26.9197V10.3362H55.018V26.9197H51.814ZM53.4308 7.7849C52.8672 7.7849 52.3876 7.59701 51.992 7.22124C51.5965 6.84546 51.3987 6.39552 51.3987 5.87142C51.3987 5.33742 51.5965 4.88254 51.992 4.50677C52.3876 4.13099 52.8672 3.94311 53.4308 3.94311C53.9846 3.94311 54.4593 4.13099 54.8548 4.50677C55.2603 4.88254 55.463 5.33742 55.463 5.87142C55.463 6.39552 55.2603 6.84546 54.8548 7.22124C54.4593 7.59701 53.9846 7.7849 53.4308 7.7849ZM69.8962 14.4005L66.9741 14.9048C66.7862 14.351 66.4352 13.8418 65.921 13.377C65.4166 12.9122 64.6601 12.6798 63.6515 12.6798C62.7417 12.6798 61.9803 12.8875 61.3672 13.3028C60.764 13.7083 60.4623 14.2274 60.4623 14.8603C60.4623 15.4141 60.6651 15.864 61.0705 16.2101C61.4858 16.5562 62.1434 16.8331 63.0433 17.0408L65.6985 17.6341C67.2114 17.9802 68.3437 18.5241 69.0953 19.2658C69.8468 20.0074 70.2226 20.9567 70.2226 22.1137C70.2226 23.1125 69.9358 24.0025 69.3622 24.7837C68.7887 25.555 67.9927 26.1632 66.9741 26.6082C65.9556 27.0433 64.7788 27.2608 63.4438 27.2608C61.5847 27.2608 60.0717 26.8603 58.9049 26.0594C57.738 25.2584 57.0211 24.131 56.7541 22.6774L59.8542 22.2027C60.052 23.0136 60.4525 23.6267 61.0557 24.042C61.6688 24.4574 62.4599 24.665 63.429 24.665C64.4772 24.665 65.3177 24.4425 65.9506 23.9975C66.5934 23.5525 66.9148 23.0136 66.9148 22.3807C66.9148 21.3325 66.1336 20.6255 64.5711 20.2596L61.7677 19.6366C60.2151 19.2806 59.068 18.7219 58.3264 17.9604C57.5946 17.1891 57.2287 16.22 57.2287 15.0531C57.2287 14.0742 57.5007 13.2138 58.0445 12.4722C58.5983 11.7305 59.3548 11.157 60.314 10.7515C61.2831 10.3362 62.3857 10.1285 63.6218 10.1285C65.4216 10.1285 66.8307 10.5191 67.8493 11.3004C68.8777 12.0816 69.56 13.1149 69.8962 14.4005ZM79.5829 10.3362V12.932H70.5347V10.3362H79.5829ZM72.9525 6.39058H76.1713V22.0544C76.1713 22.8158 76.3295 23.3746 76.6459 23.7305C76.9624 24.0767 77.4716 24.2497 78.1737 24.2497C78.3418 24.2497 78.5198 24.2398 78.7077 24.22C78.9055 24.2003 79.1033 24.1706 79.3011 24.131L79.9092 26.801C79.5829 26.9098 79.2269 26.9938 78.8412 27.0532C78.4556 27.1125 78.0699 27.1422 77.6842 27.1422C76.2504 27.1422 75.1033 26.7417 74.243 25.9407C73.3826 25.1298 72.9525 24.0519 72.9525 22.7071V6.39058ZM88.246 27.2608C86.6243 27.2608 85.2201 26.9098 84.0334 26.2077C82.8468 25.5056 81.9321 24.5167 81.2893 23.2411C80.6564 21.9555 80.34 20.4574 80.34 18.7466C80.34 17.0457 80.6515 15.5476 81.2745 14.2522C81.9073 12.9567 82.7924 11.9481 83.9296 11.2262C85.0767 10.4944 86.4216 10.1285 87.9642 10.1285C88.9037 10.1285 89.8134 10.2818 90.6935 10.5884C91.5736 10.8949 92.3647 11.3795 93.0668 12.042C93.7689 12.7046 94.3227 13.5649 94.7281 14.623C95.1435 15.6811 95.3511 16.9567 95.3511 18.4499V19.6069H82.1645V17.1891H93.6898L92.1917 17.9901C92.1917 16.9716 92.0335 16.0717 91.717 15.2905C91.4006 14.5093 90.9259 13.9011 90.293 13.466C89.67 13.021 88.8938 12.7985 87.9642 12.7985C87.0347 12.7985 86.2386 13.021 85.5761 13.466C84.9234 13.911 84.424 14.4994 84.0779 15.2311C83.7318 15.9629 83.5588 16.7639 83.5588 17.6341V19.2806C83.5588 20.4178 83.7565 21.382 84.1521 22.1731C84.5476 22.9642 85.0965 23.5674 85.7986 23.9827C86.5106 24.398 87.3363 24.6057 88.2757 24.6057C88.8888 24.6057 89.4426 24.5167 89.937 24.3387C90.4414 24.1607 90.8765 23.8937 91.2423 23.5377C91.6082 23.1817 91.8851 22.7417 92.073 22.2176L95.1286 22.7961C94.8814 23.686 94.4463 24.4673 93.8233 25.1397C93.2003 25.8121 92.4142 26.3362 91.4648 26.712C90.5254 27.0779 89.4525 27.2608 88.246 27.2608ZM96.9982 26.9197V10.3362H100.098V12.9913H100.276C100.583 12.1013 101.117 11.3992 101.878 10.885C102.65 10.3609 103.52 10.0989 104.489 10.0989C104.687 10.0989 104.919 10.1088 105.186 10.1285C105.463 10.1384 105.685 10.1533 105.854 10.173V13.2583C105.725 13.2188 105.493 13.1792 105.156 13.1397C104.83 13.1001 104.499 13.0803 104.163 13.0803C103.401 13.0803 102.719 13.2435 102.116 13.5698C101.522 13.8863 101.053 14.3263 100.706 14.89C100.37 15.4438 100.202 16.0865 100.202 16.8183V26.9197H96.9982Z" fill="black"/>
<path d="M114 5.98729C114 4.33746 115.337 3 116.987 3H173.057C174.706 3 176.044 4.33746 176.044 5.98729V24.2098C176.044 25.8596 174.706 27.1971 173.057 27.1971H116.987C115.337 27.1971 114 25.8596 114 24.2098V5.98729Z" fill="#379751"/>
<path d="M132.77 11.9262H129.543V13.9363H132.259V15.4683H129.532V18H127.804V10.3942H132.77V11.9262ZM139.453 10.3942V15.175C139.453 17.0004 138.269 18.1413 136.4 18.1413C134.509 18.1413 133.325 17.0004 133.325 15.175V10.3942H135.064V15.1858C135.064 16.0768 135.585 16.6418 136.4 16.6418C137.215 16.6418 137.715 16.0768 137.715 15.1858V10.3942H139.453ZM145.815 10.3942H147.455V18H145.26L143.261 14.5991L142.294 12.8172V18H140.686V10.3942H142.859L145.021 14.1645L145.815 15.6422V10.3942ZM151.513 10.3942C153.904 10.3942 155.403 11.861 155.403 14.1754C155.403 16.5332 153.904 18 151.513 18H148.851V10.3942H151.513ZM151.459 16.5223C152.763 16.5223 153.578 15.6205 153.578 14.1754C153.578 12.7628 152.763 11.8719 151.459 11.8719H150.59V16.5223H151.459ZM159.365 18.1413C157.442 18.1413 156.279 17.1525 156.018 15.8704L157.757 15.577C157.974 16.3484 158.528 16.7396 159.332 16.7396C160.017 16.7396 160.419 16.468 160.419 15.979C160.419 14.4687 156.301 15.1532 156.301 12.4912C156.301 10.9592 157.55 10.2203 159.115 10.2203C160.799 10.2203 161.777 11.1439 162.016 12.3717L160.299 12.6542C160.114 12.0457 159.702 11.6111 159.05 11.6111C158.419 11.6111 158.05 11.9588 158.05 12.3826C158.05 13.7407 162.168 13.1323 162.168 15.8052C162.168 17.2394 161.082 18.1413 159.365 18.1413Z" fill="white"/>
</svg>
